<?xml version="1.0" standalone="no"?>
<!DOCTYPE svg PUBLIC "-//W3C//DTD SVG 20010904//EN"
 "http://www.w3.org/TR/2001/REC-SVG-20010904/DTD/svg10.dtd">
<svg version="1.0" xmlns="http://www.w3.org/2000/svg"
 width="411.000000pt" height="411.000000pt" viewBox="0 0 411.000000 411.000000"
 preserveAspectRatio="xMidYMid meet">
<metadata>
Created by potrace 1.14, written by Peter Selinger 2001-2017
</metadata>
<g transform="translate(0.000000,411.000000) scale(0.100000,-0.100000)"
fill="#000000" stroke="none">
<path d="M2130 3903 c-109 -14 -238 -43 -296 -68 -32 -13 -38 -12 -86 13 -46
24 -63 27 -143 26 -94 -1 -159 -18 -269 -70 -104 -49 -156 -114 -180 -225 -4
-19 -27 -39 -89 -76 -136 -84 -197 -170 -197 -281 0 -28 -8 -43 -39 -72 -21
-20 -44 -47 -51 -59 -12 -24 -12 -132 1 -191 4 -19 11 -61 14 -92 6 -51 4 -60
-19 -91 -60 -78 -65 -143 -20 -265 l26 -73 -25 -59 c-51 -117 -58 -249 -18
-327 42 -82 96 -115 189 -119 68 -3 114 12 190 60 l41 26 32 -46 c26 -38 29
-48 18 -58 -8 -7 -55 -45 -106 -85 -99 -77 -182 -163 -184 -190 -6 -63 6 -93
91 -236 26 -44 61 -106 78 -137 40 -74 52 -62 -198 -177 -69 -32 -150 -68
-180 -82 -64 -28 -336 -163 -365 -181 -170 -108 -267 -247 -282 -404 -6 -64
-12 -72 -55 -65 -5 0 -8 -22 -8 -49 l0 -50 2045 0 2046 0 -6 78 c-7 107 -21
165 -62 250 -75 159 -198 242 -688 462 -88 40 -188 85 -222 101 -35 15 -63 33
-63 39 0 12 87 217 100 235 10 15 81 184 87 209 13 57 2 101 -35 139 -31 32
-207 147 -225 147 -3 0 -22 9 -41 21 l-36 21 22 40 c32 57 38 59 94 42 142
-44 202 -38 272 29 19 18 46 55 60 82 24 45 27 60 27 160 0 129 -9 154 -85
232 -54 56 -54 51 -14 173 27 81 9 288 -37 415 -24 67 -69 131 -100 140 -21 7
-21 1 -3 116 12 81 -41 210 -121 293 -83 87 -178 121 -251 91 -30 -12 -33 -11
-45 12 -36 67 -101 89 -175 58 -35 -14 -36 -14 -62 18 -92 111 -149 127 -352
100z m-590 -408 c-7 -8 -17 -15 -23 -15 -6 0 -2 7 9 15 25 19 30 19 14 0z
m-140 -59 c0 -2 -8 -10 -17 -17 -16 -13 -17 -12 -4 4 13 16 21 21 21 13z m-60
-40 c0 -2 -8 -10 -17 -17 -16 -13 -17 -12 -4 4 13 16 21 21 21 13z m-70 -59
c0 -2 -10 -12 -22 -23 l-23 -19 19 23 c18 21 26 27 26 19z m240 -100 c0 -2
-10 -12 -22 -23 l-23 -19 19 23 c18 21 26 27 26 19z m1370 -511 c0 -2 -8 -10
-17 -17 -16 -13 -17 -12 -4 4 13 16 21 21 21 13z m-510 -150 c0 -2 -7 -7 -16
-10 -8 -3 -12 -2 -9 4 6 10 25 14 25 6z m-785 -126 c-3 -5 -12 -10 -18 -10 -7
0 -6 4 3 10 19 12 23 12 15 0z m1555 -14 c0 -2 -8 -10 -17 -17 -16 -13 -17
-12 -4 4 13 16 21 21 21 13z m-870 -10 c0 -2 -8 -10 -17 -17 -16 -13 -17 -12
-4 4 13 16 21 21 21 13z m-500 -59 c0 -2 -10 -12 -22 -23 l-23 -19 19 23 c18
21 26 27 26 19z m817 -29 c-3 -8 -6 -5 -6 6 -1 11 2 17 5 13 3 -3 4 -12 1 -19z
m-317 -42 c0 -2 -7 -7 -16 -10 -8 -3 -12 -2 -9 4 6 10 25 14 25 6z m-985 -116
c-10 -11 -22 -20 -28 -20 -5 0 1 9 14 20 31 25 37 25 14 0z m810 -520 c-3 -5
-12 -10 -18 -10 -7 0 -6 4 3 10 19 12 23 12 15 0z m515 -283 c0 -2 -10 -12
-22 -23 l-23 -19 19 23 c18 21 26 27 26 19z m-70 -71 c0 -2 -8 -10 -17 -17
-16 -13 -17 -12 -4 4 13 16 21 21 21 13z m90 -470 c0 -2 -8 -10 -17 -17 -16
-13 -17 -12 -4 4 13 16 21 21 21 13z m-554 -34 c-17 -16 -18 -16 -5 5 7 12 15
20 18 17 3 -2 -3 -12 -13 -22z m59 -172 c-3 -5 -12 -10 -18 -10 -7 0 -6 4 3
10 19 12 23 12 15 0z"/>
</g>
</svg>
